#Comment line ignore any data following # character
#Hierarchical Translation and Rotation (.htr) file
[Header]		#Header keywords are followed by a single value
FileType htr		#Single word string
DataType HTRS		#Translation followed by rotation and scale data
FileVersion 1		#integer
NumSegments 18		#integer
NumFrames 9		#integer
DataFrameRate 60		#integer, data frame rate in this file
EulerRotationOrder ZYX
CalibrationUnits mm
RotationUnits Degrees
GlobalAxisofGravity Y
BoneLengthAxis Y
ScaleFactor 1.000000
[SegmentNames&Hierarchy]
#CHILD	PARENT
Head	Neck
Neck	Chest
Chest	Hips
LeftShoulder	LeftCollar
RightShoulder	RightCollar
LeftElbow	LeftShoulder
RightElbow	RightShoulder
LeftWrist	LeftElbow
RightWrist	RightElbow
Hips	GLOBAL
LeftHip	Hips
RightHip	Hips
LeftKnee	LeftHip
RightKnee	RightHip
LeftAnkle	LeftKnee
RightAnkle	RightKnee
LeftCollar	Chest
RightCollar	Chest
[BasePosition]
#SegmentName Tx, Ty, Tz, Rx, Ry, Rz, BoneLength
Head	0.000003	141.966248	0.000002	-37.745777	-8.179454	6.203664	80.000046
Neck	0.000000	379.566772	0.000000	32.855431	-5.194619	1.823337	141.966263
Chest	0.000000	94.891693	0.000000	0.000002	12.877405	-0.000012	379.566803
LeftShoulder	0.000003	154.023666	0.000005	171.957962	-79.977570	-157.094910	215.219986
RightShoulder	-0.000001	146.408707	-0.000001	20.020029	60.865143	-8.207462	240.139038
LeftElbow	0.000007	215.219971	-0.000011	-24.162848	54.442085	-17.491318	336.440125
RightElbow	-0.000021	240.139038	0.000007	-21.925606	-43.617706	23.102211	322.101532
LeftWrist	-0.000014	336.440094	0.000002	173.178864	-0.531422	156.628021	100.348160
RightWrist	0.000005	322.101501	0.000026	1.868945	1.747480	14.125610	109.739998
Hips	377.886597	1077.530640	704.474976	-179.011169	36.455761	-178.006714	94.891701
LeftHip	95.336761	5.238981	-8.336124	-0.485735	-9.415434	-176.117065	525.916443
RightHip	-96.119095	-4.691877	-4.857316	2.457280	-1.423929	-179.125565	528.302429
LeftKnee	0.000004	525.916443	0.000001	-10.646533	-14.541370	-1.855900	514.711975
RightKnee	-0.000002	528.302429	0.000004	-12.768950	2.118825	-3.063609	521.764099
LeftAnkle	0.000003	514.711975	0.000009	97.965164	-0.000001	0.000000	253.446518
RightAnkle	0.000001	521.764099	-0.000002	99.242271	0.000002	0.000000	256.283173
LeftCollar	19.999998	366.483276	-15.126845	169.660507	-4.312743	90.901894	154.023682
RightCollar	-19.999996	366.483215	-15.126822	171.369568	4.171492	-91.645760	146.408707
#Beginning of Data. Separated by tabs
[Head]
#Fr	Tx	Ty	Tz	Rx	Ry	Rz	SF
49	-0.000004	8.249390	-0.000013	-14.569387	-6.581477	6.253136	0.999999
50	-0.000004	7.775864	-0.000008	-14.721003	-6.727022	6.047605	0.999999
51	-0.000009	7.373932	-0.000001	-14.933475	-6.834775	5.860989	0.999999
52	-0.000002	6.902161	-0.000001	-14.975418	-6.921433	5.488803	0.999999
53	0.000007	6.548782	0.000011	-15.005070	-6.941843	4.932446	1.000000
54	-0.000000	6.117599	0.000001	-14.717775	-6.903860	4.321363	0.999999
55	-0.000007	5.694733	-0.000005	-14.071313	-6.794135	3.659534	1.000000
56	-0.000004	5.252136	0.000005	-13.236247	-6.685739	2.811723	1.000000
57	-0.000004	4.857254	0.000010	-12.402889	-6.545314	1.902492	1.000000
[Neck]
#Fr	Tx	Ty	Tz	Rx	Ry	Rz	SF
49	0.000001	-11.534393	0.000002	-7.611212	-0.738633	-4.592489	1.058108
50	0.000001	-10.735474	-0.000001	-7.802894	-0.656515	-4.778721	1.054773
51	-0.000007	-9.770660	0.000002	-7.918552	-0.559529	-5.046947	1.051941
52	0.000002	-8.821960	0.000003	-8.106076	-0.429733	-5.280433	1.048618
53	-0.000002	-7.840790	0.000005	-8.284859	-0.268838	-5.483022	1.046129
54	0.000004	-7.096832	0.000002	-8.501404	-0.084514	-5.757631	1.043092
55	-0.000012	-6.506836	-0.000008	-8.794207	0.097826	-6.051692	1.040113
56	0.000002	-6.029724	0.000001	-9.093126	0.300569	-6.336548	1.036996
57	-0.000002	-5.708710	0.000009	-9.302496	0.504858	-6.562923	1.034214
[Chest]
#Fr	Tx	Ty	Tz	Rx	Ry	Rz	SF
49	-0.000000	-2.883636	0.000000	0.000008	-4.354763	0.000004	0.969612
50	0.000001	-2.683929	-0.000001	-0.000006	-4.255559	0.000007	0.971716
51	-0.000000	-2.442635	-0.000001	-0.000010	-4.203003	0.000014	0.974258
52	0.000000	-2.205429	-0.000001	0.000004	-4.193945	0.000010	0.976758
53	0.000000	-1.960182	0.000001	-0.000022	-4.074802	0.000017	0.979343
54	0.000001	-1.774170	0.000000	0.000001	-3.922435	0.000015	0.981303
55	-0.000000	-1.626648	-0.000000	0.000004	-3.770229	0.000013	0.982857
56	-0.000000	-1.507370	-0.000000	0.000003	-3.634210	0.000015	0.984114
57	0.000001	-1.427101	0.000000	-0.000013	-3.367180	0.000022	0.984960
[LeftShoulder]
#Fr	Tx	Ty	Tz	Rx	Ry	Rz	SF
49	-0.000009	12.204773	-0.000002	72.627846	36.749115	77.879639	1.191593
50	-0.000004	11.439606	-0.000011	69.619980	35.951824	76.969215	1.180024
51	-0.000005	10.572372	0.000005	66.333153	34.916454	75.978516	1.168496
52	-0.000005	9.637085	0.000003	62.855129	33.576805	74.978745	1.158235
53	0.000000	8.601471	-0.000023	59.339905	31.984652	73.998520	1.150114
54	0.000003	7.488998	-0.000010	55.947853	30.195599	73.035149	1.144709
55	-0.000008	6.379959	-0.000014	52.831440	28.256922	72.182091	1.142558
56	-0.000001	5.349457	-0.000001	50.158886	26.247913	71.516693	1.143672
57	-0.000002	4.399429	-0.000031	48.026962	24.286573	71.011894	1.147379
[RightShoulder]
#Fr	Tx	Ty	Tz	Rx	Ry	Rz	SF
49	0.000001	13.283951	0.000003	53.733593	-46.769066	-80.966965	1.072190
50	0.000001	12.942657	0.000003	50.071213	-46.797466	-79.674225	1.060524
51	0.000000	12.465057	0.000005	45.780613	-46.681091	-78.025146	1.049269
52	0.000003	11.861542	0.000001	40.974159	-46.252682	-76.000656	1.039527
53	0.000003	11.164032	0.000013	35.883167	-45.436390	-73.787239	1.032050
54	-0.000001	10.441391	0.000009	30.862425	-44.218025	-71.623146	1.027352
55	-0.000004	9.728607	-0.000012	26.224396	-42.682678	-69.701958	1.025721
56	0.000002	9.049744	0.000006	22.151154	-40.811405	-68.098854	1.027124
57	-0.000001	8.465149	-0.000003	18.856062	-38.849548	-66.943771	1.030617
[LeftElbow]
#Fr	Tx	Ty	Tz	Rx	Ry	Rz	SF
49	-0.000012	41.234650	0.000013	-42.021576	-20.647860	0.477315	0.776182
50	-0.000010	38.744720	0.000002	-46.254593	-19.942863	-1.811251	0.761734
51	-0.000009	36.263687	0.000009	-50.293976	-19.534521	-4.261511	0.752363
52	-0.000006	34.055313	0.000057	-53.921486	-19.371054	-6.744201	0.748869
53	0.000000	32.307663	0.000005	-57.002056	-19.465111	-8.969660	0.749755
54	0.000004	31.144287	0.000012	-59.563118	-19.713055	-10.721021	0.755025
55	-0.000004	30.681305	0.000004	-61.479778	-19.987089	-11.998640	0.762057
56	0.000001	30.921143	-0.000023	-62.885300	-20.259489	-12.663817	0.769671
57	-0.000006	31.718887	0.000001	-63.925182	-20.562891	-12.646543	0.776294
[RightElbow]
#Fr	Tx	Ty	Tz	Rx	Ry	Rz	SF
49	0.000027	17.335785	-0.000002	-35.963982	27.327271	35.084625	0.791966
50	0.000032	14.534241	-0.000006	-37.734947	28.874567	38.847942	0.783107
51	0.000022	11.831543	0.000004	-39.225849	30.489521	42.047165	0.780318
52	0.000021	9.492081	-0.000028	-40.702091	32.229664	44.194805	0.783255
53	0.000031	7.696503	-0.000006	-42.212368	33.962589	45.129974	0.790175
54	0.000021	6.568314	-0.000017	-43.793247	35.575417	44.886177	0.799672
55	0.000013	6.176575	-0.000025	-45.441414	37.019535	43.611156	0.811015
56	0.000008	6.513412	0.000001	-47.331261	38.382046	41.225662	0.822003
57	0.000027	7.352203	-0.000037	-49.347313	39.635433	38.081936	0.831956
[LeftWrist]
#Fr	Tx	Ty	Tz	Rx	Ry	Rz	SF
49	-0.000008	-75.301300	-0.000007	117.235626	-67.877922	-108.582710	0.785210
50	-0.000003	-80.162292	0.000010	118.443985	-66.364555	-106.870346	0.762334
51	-0.000010	-83.315002	0.000007	119.786705	-64.709015	-105.363518	0.752692
52	-0.000028	-84.490540	-0.000021	121.588715	-63.048187	-104.641510	0.754380
53	0.000054	-84.192383	0.000010	123.316505	-61.453674	-104.463745	0.768917
54	0.000044	-82.419495	0.000002	125.069435	-60.131050	-104.831764	0.790084
55	0.000002	-80.053467	0.000010	126.666016	-59.146130	-105.742546	0.815696
56	-0.000012	-77.491882	0.000008	128.072037	-58.692211	-106.904686	0.840634
57	0.000033	-75.263733	0.000016	129.080765	-58.495537	-108.091621	0.861828
[RightWrist]
#Fr	Tx	Ty	Tz	Rx	Ry	Rz	SF
49	0.000001	-67.008041	-0.000024	177.909225	70.913574	-141.004562	0.820539
50	0.000004	-69.861649	-0.000030	177.957870	70.609337	-139.716217	0.818894
51	-0.000016	-70.760040	-0.000013	178.973633	70.534531	-138.009354	0.822132
52	0.000005	-69.814011	-0.000022	-178.406433	70.501595	-135.327911	0.830014
53	0.000006	-67.584976	-0.000033	-174.526031	70.451561	-131.973480	0.840752
54	0.000020	-64.525787	-0.000044	-169.946213	70.296082	-128.492157	0.852309
55	-0.000001	-60.872437	-0.000012	-165.599838	70.256844	-125.530830	0.863634
56	-0.000023	-57.333008	-0.000027	-160.595078	70.153671	-122.455162	0.872298
57	0.000015	-54.127289	0.000011	-155.683685	70.235374	-119.841461	0.878276
[Hips]
#Fr	Tx	Ty	Tz	Rx	Ry	Rz	SF
49	-1149.285889	-31.880615	-601.180603	30.995665	-81.639244	-16.060509	0.969611
50	-1150.511230	-40.082764	-608.554993	29.912998	-82.136497	-14.692378	0.971716
51	-1151.053467	-48.782837	-616.369141	27.891737	-82.703621	-12.493927	0.974259
52	-1151.274414	-57.480225	-624.589172	24.893194	-83.330040	-9.384531	0.976758
53	-1150.994629	-66.078491	-633.059265	21.060648	-84.140404	-5.536554	0.979343
54	-1149.805420	-74.130310	-641.517578	15.260470	-85.005058	0.142316	0.981303
55	-1147.840698	-81.565247	-649.770813	6.366819	-85.829933	8.779077	0.982858
56	-1145.194824	-88.290710	-657.722290	-7.099320	-86.516167	21.868027	0.984115
57	-1142.062988	-94.153870	-665.203979	-26.386677	-87.026733	40.679207	0.984961
[LeftHip]
#Fr	Tx	Ty	Tz	Rx	Ry	Rz	SF
49	1.738441	-4.946645	3.845438	35.268524	-0.528633	4.810105	1.000651
50	1.607330	-4.971689	3.899467	36.218433	-0.402439	4.431486	0.999108
51	1.477715	-5.065091	3.799440	36.998260	-0.163302	3.984489	0.997027
52	1.368988	-5.407404	4.028317	37.705105	0.048766	3.357566	0.994740
53	1.226860	-5.425029	4.037851	38.254654	0.354090	2.781513	0.993379
54	1.210739	-5.631618	3.789217	38.638008	0.705573	2.079118	0.992700
55	1.225937	-5.779918	3.495752	38.746552	1.043180	1.331727	0.993166
56	1.143494	-6.029531	3.214934	38.697731	1.364087	0.534813	0.993805
57	1.075630	-6.312105	3.104520	38.555534	1.544417	-0.267745	0.994326
[RightHip]
#Fr	Tx	Ty	Tz	Rx	Ry	Rz	SF
49	-0.320511	2.297510	-2.379264	31.070044	1.017992	-8.933725	1.010217
50	-0.276108	2.371591	-1.893845	32.469078	1.127393	-9.651302	1.008869
51	-0.195412	2.436481	-1.768548	33.754684	1.270955	-10.525647	1.006340
52	-0.130157	2.836450	-1.451912	34.951710	1.456542	-11.383988	1.004983
53	0.004944	2.831388	-1.405537	36.120773	1.643165	-12.146105	1.003002
54	-0.019859	2.926648	-1.500119	37.010437	1.809515	-12.936103	1.001105
55	-0.079262	2.949111	-1.598924	37.727806	2.011389	-13.700306	0.998940
56	-0.010529	3.031361	-1.874336	38.351105	2.230347	-14.396282	0.997755
57	-0.014709	3.254655	-1.720830	38.782452	2.442941	-14.922251	0.996924
[LeftKnee]
#Fr	Tx	Ty	Tz	Rx	Ry	Rz	SF
49	0.000002	0.342407	0.000006	-36.944508	6.107864	7.300176	0.980345
50	0.000012	-0.469299	-0.000022	-38.302208	6.363999	7.506572	0.981323
51	-0.000014	-1.563477	0.000026	-39.596706	5.987512	7.897177	0.981887
52	-0.000014	-2.766418	0.000032	-40.873947	5.524885	8.418900	0.982182
53	-0.000013	-3.482239	-0.000016	-42.156731	4.728402	8.914031	0.982838
54	-0.000027	-3.839478	0.000022	-43.473427	3.973760	9.386250	0.984119
55	-0.000009	-3.594055	-0.000025	-44.747440	3.041961	9.803802	0.983862
56	-0.000011	-3.258118	-0.000009	-46.007267	2.044757	10.316261	0.982935
57	0.000001	-2.984070	0.000010	-47.303276	1.265899	10.747497	0.982986
[RightKnee]
#Fr	Tx	Ty	Tz	Rx	Ry	Rz	SF
49	0.000014	5.397522	0.000014	-32.751877	13.088511	-5.599866	0.995876
50	-0.000002	4.685730	0.000016	-34.434601	12.466318	-5.964417	0.993664
51	0.000005	3.349243	0.000001	-36.053413	11.868979	-6.269491	0.991914
52	0.000017	2.632324	0.000005	-37.625332	11.138202	-6.702636	0.990073
53	0.000003	1.585754	-0.000030	-39.072155	10.129038	-7.231157	0.988771
54	-0.000008	0.583801	-0.000010	-40.231022	9.129043	-7.704158	0.986671
55	-0.000006	-0.559753	-0.000027	-41.292801	8.052365	-8.201789	0.985262
56	0.000027	-1.186157	0.000002	-42.343872	6.793841	-8.757903	0.985212
57	-0.000011	-1.625122	0.000017	-43.163876	5.396666	-9.350423	0.984838
[LeftAnkle]
#Fr	Tx	Ty	Tz	Rx	Ry	Rz	SF
49	0.000004	-10.116852	-0.000060	8.915454	0.000000	-0.000001	1.022843
50	-0.000021	-9.612976	-0.000008	9.941434	-0.000000	-0.000001	1.022710
51	-0.000004	-9.322845	0.000017	11.011487	-0.000001	-0.000002	1.021638
52	-0.000008	-9.171204	0.000003	11.982382	-0.000000	-0.000001	1.022205
53	-0.000019	-8.833618	0.000027	12.930458	-0.000001	-0.000001	1.023365
54	-0.000013	-8.173981	-0.000015	14.111193	-0.000001	-0.000001	1.024935
55	0.000011	-8.306549	0.000020	15.265061	0.000001	-0.000001	1.024485
56	0.000011	-8.783722	-0.000031	16.246553	-0.000000	-0.000001	1.024640
57	-0.000049	-8.757202	0.000014	17.059055	-0.000001	-0.000002	1.026039
[RightAnkle]
#Fr	Tx	Ty	Tz	Rx	Ry	Rz	SF
49	0.000033	-2.151611	-0.000067	8.130249	-0.000000	0.000003	1.002170
50	-0.000031	-3.305786	0.000011	8.616712	0.000000	0.000001	1.002009
51	-0.000026	-4.218872	-0.000040	9.084195	0.000001	0.000002	1.002148
52	-0.000015	-5.179443	-0.000024	9.583363	0.000001	0.000000	1.001985
53	0.000004	-5.858704	-0.000046	10.009439	-0.000000	0.000002	1.002448
54	0.000038	-6.954773	-0.000046	10.331305	0.000000	0.000002	1.001819
55	-0.000001	-7.689880	-0.000020	10.614928	0.000001	0.000004	1.000342
56	-0.000004	-7.715881	0.000011	10.903253	0.000001	0.000001	1.000232
57	0.000006	-7.911072	-0.000039	11.072193	0.000001	0.000005	0.999741
[LeftCollar]
#Fr	Tx	Ty	Tz	Rx	Ry	Rz	SF
49	0.000008	-11.859619	0.287513	-2.856549	-1.735699	6.750778	1.079239
50	0.000002	-11.154846	0.373167	-3.115868	-2.067050	6.462348	1.074272
51	0.000010	-10.287079	0.462581	-3.357253	-2.412969	6.177437	1.068641
52	0.000000	-9.457397	0.573781	-3.531207	-2.850520	5.852788	1.062569
53	-0.000004	-8.612701	0.703640	-3.657632	-3.364290	5.507482	1.055845
54	0.000010	-8.015106	0.845739	-3.757054	-3.924084	5.165012	1.048622
55	0.000002	-7.575928	0.995212	-3.832323	-4.506177	4.810646	1.041422
56	0.000004	-7.251495	1.149748	-3.853373	-5.104007	4.463333	1.034731
57	0.000004	-7.078125	1.302471	-3.901551	-5.681237	4.121498	1.028563
[RightCollar]
#Fr	Tx	Ty	Tz	Rx	Ry	Rz	SF
49	0.000000	-11.859589	0.287477	-7.306169	1.180140	-6.793876	1.090732
50	-0.000011	-11.154816	0.373145	-7.704607	1.501018	-6.085018	1.088401
51	-0.000011	-10.287018	0.462528	-8.172128	1.831200	-5.342562	1.085139
52	0.000002	-9.457245	0.573740	-8.725968	2.243683	-4.575651	1.081017
53	-0.000013	-8.612610	0.703608	-9.356556	2.724678	-3.804379	1.076253
54	-0.000008	-8.015045	0.845684	-10.004452	3.249908	-3.074392	1.071317
55	-0.000002	-7.575836	0.995155	-10.669500	3.793991	-2.421406	1.066448
56	0.000000	-7.251373	1.149742	-11.331922	4.345677	-1.866900	1.061812
57	-0.000004	-7.077972	1.302423	-11.913619	4.882540	-1.451603	1.057819
[EndOfFile]
